# xmcd
#
# Track frame offsets:
#	150
#	25107
#	48972
#	68990
#	87773
#	107128
#	129166
#	153878
#
# Disc length: 2284 seconds
#
# Revision: 1
# Processed by: cddbd v1.5.2PL0 Copyright (c) Steve Scherf et al.
# Submitted via: EasyCDDAExtractor 2010.6.0.0
#
DISCID=5808ea08
DTITLE=Blues Company - The Quiet Side of Blues Company
DYEAR=2005
DGENRE=Blues
TTITLE0=The World Is Mad
TTITLE1=Christmas Eve In Germany
TTITLE2=Members Only
TTITLE3=Muddy Waters
TTITLE4=Out Of My Mind
TTITLE5=Chanel No.5
TTITLE6=Place To Rest
TTITLE7=Give Me Back My Life
EXTD=
EXTT0=
EXTT1=
EXTT2=
EXTT3=
EXTT4=
EXTT5=
EXTT6=
EXTT7=
PLAYORDER=
